<svg width="400" height="150" viewBox="0 0 400 150" xmlns="http://www.w3.org/2000/svg">
  <!-- Hexágonos roxos -->
  <polygon points="50,30 65,20 80,30 80,50 65,60 50,50" fill="#8B5CF6"/>
  <polygon points="30,50 45,40 60,50 60,70 45,80 30,70" fill="#8B5CF6" opacity="0.7"/>
  <polygon points="30,90 45,80 60,90 60,110 45,120 30,110" fill="#8B5CF6" opacity="0.5"/>
  
  <!-- Hexágonos verdes -->
  <polygon points="90,40 110,30 130,40 130,65 110,75 90,65" fill="#10B981"/>
  <polygon points="110,75 130,65 150,75 150,100 130,110 110,100" fill="#10B981" opacity="0.8"/>
  <polygon points="130,20 145,10 160,20 160,40 145,50 130,40" fill="#10B981" opacity="0.6"/>
  
  <!-- Linha de velocidade -->
  <path d="M 160 55 Q 180 50, 200 55" stroke="#8B5CF6" stroke-width="3" fill="none" opacity="0.6"/>
  
  <!-- Texto VeloStock -->
  <text x="50" y="145" font-family="'Inter', 'Arial', sans-serif" font-size="36" font-weight="700" fill="#000000">
    Velo<tspan fill="#10B981">Stock</tspan>
  </text>
</svg>
